<?xml version="1.0" encoding="utf-8"?>
<svg version="1.1" id="Layer_1" x="0px" y="0px" viewBox="0 0 200 37.4" style="enable-background:new 0 0 2300.7 430.5;" width="200px" height="37.4px" xmlns="http://www.w3.org/2000/svg">
  <style type="text/css">
	.st0{fill:#013A44;}
	.st1{fill:#4B8047;}
	.st2{fill:#225087;}
	.st3{fill:#F1564A;}
	.st4{fill:#D9D9D9;}
	.st5{fill:#19A1A1;}
	.st6{fill:#231F20;}
	.st7{fill:#9BC792;}
	.st8{fill:#4C7F3E;}
	.st9{fill:#2775BB;}
	.st10{fill:none;}
	.st11{fill:#80C88E;}
	.st12{fill:#24282A;}
	.st13{fill:#80C88D;}
	.st14{fill:#A8D04B;}
	.st15{fill:#F99F44;}
	.st16{fill:#AA57A2;}
	.st17{fill:#24272A;}
	.st18{fill-rule:evenodd;clip-rule:evenodd;fill:#FFEA00;}
	.st19{fill:#462DE0;}
	.st20{fill:#0B3C84;}
	.st21{fill:#005CD6;}
	.st22{fill:#FEFEFE;}
	.st23{fill:#4085DF;}
	.st24{fill:#9BEBE4;}
	.st25{fill:#A1F5E3;}
	.st26{fill:#4A9BDD;}
	.st27{fill:#4084DF;}
	.st28{fill:#005CD5;}
	.st29{fill:#1D9BCF;}
	.st30{fill:#23A7CE;}
	.st31{fill:#26AECE;}
	.st32{fill:#1A95D0;}
	.st33{fill:#20A2CF;}
	.st34{fill:#0F7DD2;}
	.st35{fill:#35CDCB;}
	.st36{fill:#39D7CA;}
	.st37{fill:#0D78D3;}
	.st38{fill:#188FD0;}
	.st39{fill:#1283D2;}
	.st40{fill:#0A72D3;}
	.st41{fill:#1487D1;}
	.st42{fill:#1F9FCF;}
	.st43{fill:#0261D5;}
	.st44{fill:#37D2CA;}
	.st45{fill:#28B3CD;}
	.st46{fill:#086DD3;}
	.st47{fill:#0669D4;}
	.st48{fill:#168BD1;}
	.st49{fill:#30C2CC;}
	.st50{fill:#0464D4;}
	.st51{fill:#2AB6CD;}
	.st52{fill:#2CBACD;}
	.st53{fill:#32C7CB;}
	.st54{fill:#2EBECC;}
	.st55{fill:#2EBFCC;}
	.st56{fill:#107ED2;}
	.st57{fill:#1385D1;}
	.st58{fill:#0B73D3;}
	.st59{fill:#20A0CF;}
	.st60{fill:#0D78D2;}
	.st61{fill:#1282D2;}
	.st62{fill:#1D9ACF;}
	.st63{fill:#1B96D0;}
	.st64{fill:#096ED3;}
	.st65{fill:#1991D0;}
	.st66{fill:#0362D5;}
	.st67{fill:#0465D4;}
	.st68{fill:#28B1CD;}
	.st69{fill:#25ABCE;}
	.st70{fill:#2AB7CD;}
	.st71{fill:#2CBBCC;}
	.st72{fill:#1E9DCF;}
	.st73{fill:#2EC0CC;}
	.st74{fill:#34CDCB;}
	.st75{fill:#30C3CC;}
	.st76{fill:#42EBC8;}
	.st77{fill:#0E79D2;}
	.st78{fill:#0C75D3;}
	.st79{fill:#0B70D4;}
	.st80{fill:#39D6CA;}
	.st81{fill:#36D1CA;}
	.st82{fill:#0B74D3;}
	.st83{fill:#43ECC8;}
	.st84{fill:#1180D2;}
	.st85{fill:#1486D1;}
	.st86{fill:#0F7BD2;}
	.st87{fill:#1386D1;}
	.st88{fill:#168AD1;}
	.st89{fill:#40E5C9;}
	.st90{fill:#3DE0C9;}
	.st91{fill:#168CD1;}
	.st92{fill:#1890D0;}
	.st93{fill:#1A94D0;}
	.st94{fill:#0362D4;}
	.st95{fill:#41E7C8;}
	.st96{fill:#0566D4;}
	.st97{fill:#1E9CCF;}
	.st98{fill:#27B1CD;}
	.st99{fill:#23A8CE;}
	.st100{fill:#25ACCE;}
	.st101{fill:#1A93D0;}
	.st102{fill:#1B97D0;}
	.st103{fill:#0D77D3;}
	.st104{fill:#21A3CF;}
	.st105{fill:#2FC2CC;}
	.st106{fill:#1589D1;}
	.st107{fill:#2DBDCC;}
	.st108{fill:#34CCCB;}
	.st109{fill:#37D1CA;}
	.st110{fill:#3CDEC9;}
	.st111{fill:#31C6CB;}
	.st112{fill:#3AD8CA;}
	.st113{fill:#27B0CD;}
	.st114{fill:#3BDCC9;}
	.st115{fill:#24AACE;}
	.st116{fill:#22A5CE;}
	.st117{fill:#1D99D0;}
	.st118{fill:#20A1CF;}
	.st119{fill:#1F9CD0;}
	.st120{fill:#3FE3C9;}
	.st121{fill:#086ED3;}
	.st122{fill:#2DBBCC;}
	.st123{fill:#38D3CA;}
	.st124{fill:#29B5CD;}
	.st125{fill:#26ADCE;}
	.st126{fill:#24A8CE;}
	.st127{fill:#37D3CA;}
	.st128{fill:#1C95D0;}
	.st129{fill:#2FC1CC;}
	.st130{fill:#36CFCB;}
	.st131{fill:#33C9CB;}
	.st132{fill:#2BB7CD;}
	.st133{fill:#2DBCCC;}
	.st134{fill:#23A6CE;}
	.st135{fill:#35C9CC;}
	.st136{fill:#E3262D;}
	.st137{fill:none;stroke:#FFFFFF;stroke-width:1.4384;stroke-miterlimit:10;}
	.st138{fill:none;stroke:#FFFFFF;stroke-width:1.445;stroke-miterlimit:10;}
	.st139{fill:#FFFFFF;stroke:#FFFFFF;stroke-width:1.4384;stroke-miterlimit:10;}
	.st140{fill:#FFFFFF;}
	.st141{fill:#FFFFFF;stroke:#FFFFFF;stroke-width:1.445;stroke-miterlimit:10;}
</style>
  <path class="st6" d="M 22.628 34.146 L 7.041 34.146 C 2.895 34.146 0 31.182 0 26.94 L 0 11.805 C 0 7.38 2.547 4.755 6.998 4.599 L 7.024 4.599 L 22.054 4.729 C 26.853 4.729 29.504 7.459 29.504 12.422 L 29.504 15.221 L 26.74 15.221 L 26.74 12.422 C 26.74 8.962 25.331 7.493 22.037 7.493 L 7.059 7.363 C 4.12 7.476 2.756 8.893 2.756 11.814 L 2.756 26.94 C 2.756 29.678 4.399 31.382 7.033 31.382 L 22.611 31.382 C 25.471 31.382 26.774 28.817 26.774 26.435 L 26.774 23.497 L 29.539 23.497 L 29.539 26.435 C 29.556 30.904 26.635 34.146 22.628 34.146 Z" style=""/>
  <path class="st7" d="M 46.229 37.041 L 52.097 18.038 L 56.113 18.038 L 61.972 37.041 L 59.608 37.041 L 58.148 32.242 L 50.063 32.242 L 48.594 37.05 L 46.229 37.041 Z M 50.628 30.173 L 57.548 30.173 L 54.288 19.42 L 53.905 19.42 L 50.628 30.173 Z" style=""/>
  <path class="st7" d="M 64.824 37.041 L 64.824 18.038 L 69.248 18.038 L 75.873 35.598 L 76.229 35.598 L 76.229 18.038 L 78.48 18.038 L 78.48 37.041 L 74.056 37.041 L 67.458 19.446 L 67.075 19.446 L 67.075 37.041 L 64.824 37.041 Z" style=""/>
  <path class="st7" d="M 89.747 37.423 C 87.486 37.423 85.678 36.771 84.331 35.459 C 82.983 34.146 82.305 32.234 82.305 29.721 L 82.305 25.375 C 82.305 22.863 82.983 20.941 84.331 19.638 C 85.678 18.325 87.486 17.673 89.747 17.673 C 92.024 17.673 93.841 18.325 95.188 19.638 C 96.536 20.95 97.214 22.863 97.214 25.375 L 97.214 29.721 C 97.214 32.234 96.536 34.155 95.188 35.459 C 93.841 36.771 92.024 37.423 89.747 37.423 Z M 89.747 35.389 C 91.39 35.389 92.667 34.894 93.572 33.911 C 94.476 32.929 94.928 31.556 94.928 29.8 L 94.928 25.288 C 94.928 23.532 94.476 22.158 93.572 21.176 C 92.667 20.194 91.39 19.698 89.747 19.698 C 88.121 19.698 86.852 20.194 85.948 21.176 C 85.044 22.158 84.592 23.532 84.592 25.288 L 84.592 29.791 C 84.592 31.547 85.044 32.92 85.948 33.903 C 86.852 34.894 88.121 35.389 89.747 35.389 Z" style=""/>
  <path class="st7" d="M 101.013 37.041 L 101.013 18.038 L 105.437 18.038 L 112.062 35.598 L 112.418 35.598 L 112.418 18.038 L 114.669 18.038 L 114.669 37.041 L 110.245 37.041 L 103.647 19.446 L 103.264 19.446 L 103.264 37.041 L 101.013 37.041 Z" style=""/>
  <path class="st8" d="M 125.901 37.423 C 123.641 37.423 121.841 36.771 120.502 35.459 C 119.164 34.146 118.494 32.234 118.494 29.721 L 118.494 25.375 C 118.494 22.863 119.164 20.941 120.502 19.638 C 121.841 18.325 123.641 17.673 125.901 17.673 C 128.144 17.673 129.865 18.299 131.073 19.542 C 132.273 20.794 132.881 22.498 132.881 24.671 L 132.881 24.81 L 130.63 24.81 L 130.63 24.593 C 130.63 23.167 130.247 21.993 129.474 21.081 C 128.7 20.168 127.518 19.707 125.901 19.707 C 124.293 19.707 123.032 20.203 122.128 21.185 C 121.224 22.167 120.772 23.549 120.772 25.323 L 120.772 29.774 C 120.772 31.547 121.224 32.929 122.128 33.911 C 123.032 34.894 124.293 35.389 125.901 35.389 C 127.509 35.389 128.7 34.929 129.474 34.016 C 130.239 33.103 130.63 31.929 130.63 30.504 L 130.63 30.069 L 132.881 30.069 L 132.881 30.426 C 132.881 32.599 132.281 34.311 131.073 35.554 C 129.874 36.798 128.152 37.423 125.901 37.423 Z" style=""/>
  <path class="st8" d="M 136.463 37.041 L 136.463 18.038 L 144.147 18.038 C 145.321 18.038 146.364 18.238 147.26 18.647 C 148.155 19.055 148.859 19.638 149.363 20.385 C 149.867 21.133 150.12 22.037 150.12 23.089 L 150.12 23.384 C 150.12 24.636 149.824 25.618 149.224 26.34 C 148.624 27.061 147.92 27.557 147.103 27.809 L 147.103 28.191 C 147.755 28.209 148.294 28.426 148.72 28.826 C 149.146 29.235 149.355 29.843 149.355 30.66 L 149.355 37.041 L 147.103 37.041 L 147.103 30.938 C 147.103 30.399 146.955 29.982 146.651 29.687 C 146.355 29.4 145.903 29.252 145.304 29.252 L 138.732 29.252 L 138.732 37.041 L 136.463 37.041 Z M 138.74 27.192 L 143.921 27.192 C 145.173 27.192 146.138 26.887 146.816 26.279 C 147.494 25.67 147.833 24.827 147.833 23.741 L 147.833 23.549 C 147.833 22.463 147.494 21.62 146.825 21.011 C 146.156 20.402 145.191 20.098 143.921 20.098 L 138.74 20.098 L 138.74 27.192 Z" style=""/>
  <path class="st8" d="M 153.597 37.041 L 153.597 18.038 L 165.298 18.038 L 165.298 20.098 L 155.874 20.098 L 155.874 26.453 L 164.533 26.453 L 164.533 28.513 L 155.874 28.513 L 155.874 34.972 L 165.428 34.972 L 165.428 37.032 L 153.597 37.041 Z" style=""/>
  <path class="st8" d="M 167.984 37.041 L 167.984 35.007 L 170.644 35.007 L 170.644 20.081 L 167.984 20.081 L 167.984 18.047 L 175.39 18.047 C 177.885 18.047 179.824 18.681 181.188 19.95 C 182.553 21.22 183.24 23.167 183.24 25.783 L 183.24 29.313 C 183.24 31.955 182.553 33.903 181.188 35.163 C 179.824 36.424 177.894 37.05 175.39 37.05 L 167.984 37.05 L 167.984 37.041 Z M 172.921 34.981 L 175.39 34.981 C 177.233 34.981 178.633 34.529 179.571 33.625 C 180.51 32.72 180.98 31.321 180.98 29.417 L 180.98 25.697 C 180.98 23.758 180.51 22.35 179.571 21.463 C 178.633 20.576 177.233 20.133 175.39 20.133 L 172.921 20.133 L 172.921 34.981 Z" style=""/>
  <path class="st8" d="M 193.202 37.423 C 191.829 37.423 190.594 37.18 189.508 36.693 C 188.421 36.206 187.569 35.467 186.943 34.476 C 186.317 33.494 186.004 32.251 186.004 30.773 L 186.004 30.2 L 188.256 30.2 L 188.256 30.773 C 188.256 32.347 188.716 33.52 189.638 34.285 C 190.559 35.059 191.75 35.441 193.193 35.441 C 194.68 35.441 195.81 35.111 196.584 34.433 C 197.357 33.764 197.749 32.92 197.749 31.912 C 197.749 31.208 197.575 30.643 197.218 30.226 C 196.862 29.808 196.375 29.469 195.74 29.209 C 195.106 28.948 194.367 28.713 193.515 28.513 L 192.107 28.157 C 191.003 27.87 190.029 27.513 189.177 27.096 C 188.325 26.679 187.665 26.131 187.178 25.453 C 186.7 24.775 186.456 23.906 186.456 22.837 C 186.456 21.767 186.726 20.846 187.256 20.063 C 187.786 19.29 188.543 18.69 189.508 18.273 C 190.472 17.855 191.594 17.647 192.863 17.647 C 194.15 17.647 195.306 17.873 196.323 18.316 C 197.349 18.76 198.148 19.411 198.74 20.272 C 199.331 21.133 199.618 22.211 199.618 23.515 L 199.618 24.653 L 197.366 24.653 L 197.366 23.515 C 197.366 22.593 197.175 21.846 196.784 21.289 C 196.392 20.724 195.862 20.316 195.184 20.037 C 194.506 19.768 193.732 19.629 192.863 19.629 C 191.611 19.629 190.612 19.907 189.847 20.455 C 189.09 21.011 188.708 21.793 188.708 22.802 C 188.708 23.471 188.873 24.01 189.195 24.427 C 189.516 24.845 189.986 25.184 190.577 25.444 C 191.177 25.705 191.889 25.94 192.724 26.14 L 194.132 26.496 C 195.236 26.731 196.227 27.053 197.105 27.461 C 197.983 27.87 198.687 28.417 199.209 29.113 C 199.731 29.808 200 30.721 200 31.842 C 200 32.964 199.722 33.946 199.157 34.772 C 198.592 35.607 197.801 36.25 196.784 36.711 C 195.775 37.189 194.576 37.423 193.202 37.423 Z" style=""/>
  <rect x="10.458" y="10.666" class="st7" width="8.502" height="3.512" style=""/>
  <rect x="10.527" y="24.679" class="st7" width="8.502" height="3.512" style=""/>
  <rect x="10.527" y="17.612" class="st8" width="26.053" height="3.512" style=""/>
  <polygon class="st8" points="39.623 19.524 35.815 17.325 35.815 21.733" style=""/>
  <polygon class="st8" points="34.059 24.775 34.059 14.283 43.135 19.524" style=""/>
  <path class="st0" d="M 117.808 9.223 C 117.816 9.162 117.816 9.102 117.825 9.041 C 117.825 9.041 117.825 9.041 117.825 9.032 L 116.217 9.032 L 116.208 9.075 C 116.165 9.441 115.93 9.701 115.591 9.78 C 115.461 9.806 115.321 9.823 115.191 9.823 C 113.652 9.823 112.114 9.823 110.575 9.823 C 110.445 9.823 110.306 9.806 110.175 9.78 C 109.871 9.71 109.671 9.528 109.584 9.258 C 109.549 9.154 109.532 9.032 109.532 8.91 C 109.523 8.736 109.523 8.554 109.532 8.38 L 109.532 8.215 L 109.532 8.015 L 117.842 8.032 L 117.842 7.45 C 117.842 7.007 117.842 6.555 117.842 6.111 C 117.842 5.903 117.825 5.72 117.799 5.546 C 117.729 5.085 117.521 4.694 117.164 4.39 C 116.695 3.973 116.112 3.764 115.443 3.755 C 114.713 3.755 113.974 3.747 113.235 3.747 C 112.427 3.747 111.618 3.747 110.818 3.747 L 110.323 3.747 C 110.175 3.747 110.01 3.764 109.836 3.79 C 109.541 3.842 109.271 3.938 109.019 4.077 C 108.645 4.286 108.358 4.564 108.167 4.912 C 107.993 5.224 107.906 5.564 107.906 5.955 L 107.906 7.207 C 107.906 7.772 107.906 8.337 107.906 8.902 C 107.906 9.015 107.915 9.136 107.932 9.258 C 108.019 9.884 108.358 10.379 108.932 10.727 C 109.358 10.979 109.845 11.11 110.375 11.11 C 111.879 11.11 113.374 11.11 114.878 11.11 L 115.382 11.11 C 115.817 11.11 116.226 11.023 116.591 10.849 C 117.303 10.519 117.703 9.98 117.808 9.223 Z M 109.523 5.859 C 109.541 5.459 109.784 5.172 110.184 5.085 C 110.314 5.059 110.453 5.042 110.592 5.042 C 111.775 5.042 112.948 5.042 114.13 5.042 L 115.165 5.042 C 115.304 5.042 115.495 5.051 115.678 5.111 C 115.999 5.224 116.182 5.459 116.208 5.79 C 116.226 5.981 116.217 6.181 116.217 6.372 C 116.217 6.45 116.217 6.537 116.217 6.615 L 116.217 6.728 L 109.523 6.728 L 109.523 6.581 C 109.523 6.511 109.523 6.442 109.523 6.363 C 109.515 6.207 109.515 6.024 109.523 5.859 Z" style=""/>
  <path class="st0" d="M 153.023 5.555 C 152.953 5.094 152.745 4.703 152.388 4.399 C 151.919 3.981 151.337 3.773 150.667 3.764 C 149.937 3.764 149.198 3.755 148.459 3.755 C 147.651 3.755 146.842 3.755 146.043 3.755 L 145.547 3.755 C 145.399 3.755 145.234 3.773 145.06 3.799 C 144.765 3.851 144.495 3.947 144.243 4.086 C 143.869 4.294 143.582 4.573 143.391 4.92 C 143.217 5.233 143.13 5.572 143.13 5.963 L 143.13 7.215 C 143.13 7.78 143.13 8.345 143.13 8.91 C 143.13 9.023 143.139 9.145 143.156 9.267 C 143.243 9.893 143.582 10.388 144.156 10.736 C 144.582 10.988 145.069 11.118 145.599 11.118 C 147.103 11.118 148.598 11.118 150.102 11.118 L 150.606 11.118 C 151.041 11.118 151.45 11.031 151.815 10.858 C 152.536 10.51 152.936 9.971 153.032 9.223 C 153.04 9.162 153.04 9.102 153.049 9.041 C 153.049 9.041 153.049 9.041 153.049 9.032 L 151.441 9.032 L 151.432 9.075 C 151.389 9.441 151.154 9.701 150.815 9.78 C 150.685 9.806 150.546 9.823 150.415 9.823 C 148.876 9.823 147.338 9.823 145.799 9.823 C 145.669 9.823 145.53 9.806 145.399 9.78 C 145.095 9.71 144.895 9.528 144.808 9.258 C 144.773 9.154 144.756 9.032 144.756 8.91 C 144.747 8.736 144.747 8.554 144.756 8.38 L 144.756 8.215 L 144.756 8.015 L 153.066 8.032 L 153.066 7.45 C 153.066 7.007 153.066 6.555 153.066 6.111 C 153.066 5.903 153.049 5.72 153.023 5.555 Z M 151.45 6.372 C 151.45 6.45 151.45 6.537 151.45 6.615 L 151.45 6.728 L 144.756 6.728 L 144.756 6.581 C 144.756 6.511 144.756 6.442 144.756 6.363 C 144.756 6.198 144.756 6.016 144.765 5.85 C 144.782 5.451 145.025 5.164 145.425 5.077 C 145.556 5.051 145.695 5.033 145.834 5.033 C 147.016 5.033 148.19 5.033 149.372 5.033 L 150.406 5.033 C 150.546 5.033 150.737 5.042 150.919 5.103 C 151.241 5.216 151.423 5.451 151.45 5.781 C 151.458 5.981 151.45 6.181 151.45 6.372 Z" style=""/>
  <path class="st0" d="M 93.189 5.555 C 93.119 5.094 92.911 4.703 92.554 4.399 C 92.085 3.981 91.503 3.773 90.833 3.764 C 90.103 3.764 89.364 3.755 88.625 3.755 C 87.817 3.755 87.008 3.755 86.217 3.755 L 85.722 3.755 C 85.574 3.755 85.409 3.773 85.235 3.799 C 84.939 3.851 84.67 3.947 84.418 4.086 C 84.044 4.294 83.757 4.573 83.566 4.92 C 83.392 5.233 83.305 5.572 83.305 5.963 L 83.305 7.207 C 83.305 7.78 83.305 8.345 83.305 8.919 C 83.305 9.032 83.314 9.154 83.331 9.275 C 83.418 9.901 83.757 10.397 84.331 10.745 C 84.757 10.997 85.244 11.127 85.774 11.127 C 87.278 11.127 88.773 11.127 90.277 11.127 L 90.781 11.127 C 91.216 11.127 91.624 11.04 91.989 10.866 C 92.711 10.519 93.111 9.98 93.206 9.232 C 93.215 9.171 93.215 9.11 93.224 9.049 C 93.224 9.049 93.224 9.049 93.224 9.041 L 91.616 9.041 L 91.607 9.084 C 91.563 9.449 91.329 9.71 90.99 9.788 C 90.859 9.814 90.72 9.832 90.59 9.832 C 89.051 9.832 87.513 9.832 85.974 9.832 C 85.843 9.832 85.704 9.814 85.574 9.788 C 85.27 9.719 85.07 9.536 84.983 9.267 C 84.948 9.162 84.931 9.041 84.931 8.919 C 84.922 8.745 84.922 8.563 84.931 8.389 L 84.931 8.224 C 84.931 8.198 84.931 8.18 84.939 8.154 L 84.957 8.041 L 93.241 8.041 L 93.241 7.459 C 93.241 7.015 93.241 6.563 93.241 6.12 C 93.224 5.903 93.215 5.72 93.189 5.555 Z M 91.616 6.381 C 91.616 6.459 91.616 6.546 91.616 6.624 C 91.616 6.65 91.607 6.668 91.598 6.676 L 91.581 6.728 L 91.52 6.737 L 84.939 6.737 L 84.931 6.641 C 84.931 6.624 84.922 6.607 84.922 6.589 C 84.922 6.52 84.922 6.45 84.922 6.372 C 84.922 6.207 84.922 6.024 84.931 5.859 C 84.948 5.459 85.191 5.172 85.591 5.085 C 85.722 5.059 85.861 5.042 86 5.042 C 87.182 5.042 88.356 5.042 89.538 5.042 L 90.572 5.042 C 90.712 5.042 90.903 5.051 91.085 5.111 C 91.407 5.224 91.59 5.459 91.616 5.79 C 91.616 5.998 91.616 6.189 91.616 6.381 Z" style=""/>
  <path class="st0" d="M 48.724 5.703 L 48.724 0 L 47.107 0 L 47.107 11.11 C 47.299 11.11 47.446 11.11 47.62 11.11 C 47.881 11.11 48.185 11.11 48.724 11.101 L 48.724 9.849 C 48.733 8.736 48.724 8.989 48.724 7.876 L 48.724 5.703 Z" style=""/>
  <path class="st0" d="M 162.142 4.903 C 161.951 4.538 161.673 4.26 161.316 4.06 C 160.96 3.86 160.551 3.764 160.064 3.755 C 159.412 3.747 158.821 3.747 158.265 3.755 C 157.891 3.764 157.517 3.842 157.196 3.981 C 156.978 4.077 156.787 4.225 156.613 4.39 L 156.605 4.399 L 156.605 3.773 L 154.979 3.773 C 154.979 3.773 155.014 11.136 154.988 11.118 L 156.596 11.118 L 156.622 6.137 C 156.622 5.989 156.631 5.859 156.648 5.746 C 156.683 5.459 156.839 5.251 157.109 5.138 C 157.3 5.059 157.491 5.042 157.656 5.042 C 158.361 5.042 159.056 5.042 159.76 5.042 C 159.873 5.042 159.986 5.059 160.099 5.077 C 160.508 5.138 160.768 5.433 160.795 5.868 L 162.411 5.868 C 162.377 5.485 162.281 5.172 162.142 4.903 Z" style=""/>
  <path class="st0" d="M 102.404 4.903 C 102.212 4.538 101.934 4.26 101.578 4.06 C 101.221 3.86 100.813 3.764 100.326 3.755 C 99.674 3.747 99.083 3.747 98.527 3.755 C 98.153 3.764 97.779 3.842 97.457 3.981 C 97.24 4.077 97.049 4.225 96.875 4.39 L 96.866 4.399 L 96.866 3.773 L 95.241 3.773 C 95.241 3.773 95.275 11.136 95.249 11.118 L 96.857 11.118 L 96.884 6.137 C 96.884 5.989 96.892 5.859 96.91 5.746 C 96.944 5.459 97.101 5.251 97.37 5.138 C 97.562 5.059 97.753 5.042 97.918 5.042 C 98.622 5.042 99.318 5.042 100.022 5.042 C 100.135 5.042 100.248 5.059 100.361 5.077 C 100.769 5.138 101.03 5.433 101.056 5.868 L 102.673 5.868 C 102.638 5.485 102.543 5.172 102.404 4.903 Z" style=""/>
  <path class="st0" d="M 78.976 11.127 C 79.063 11.127 79.15 11.118 79.237 11.11 L 79.254 11.11 C 79.715 11.058 80.141 10.892 80.497 10.64 C 80.81 10.414 81.036 10.145 81.184 9.806 C 81.297 9.536 81.358 9.249 81.358 8.919 C 81.358 7.971 81.358 7.024 81.358 6.076 L 81.358 5.955 C 81.358 5.798 81.349 5.598 81.306 5.407 C 81.184 4.92 80.915 4.529 80.506 4.242 C 80.045 3.912 79.506 3.747 78.906 3.747 C 77.611 3.747 76.325 3.747 75.029 3.747 C 74.873 3.747 74.716 3.764 74.56 3.79 C 74.204 3.851 73.864 3.981 73.552 4.19 C 73.534 4.207 73.421 4.277 73.334 4.338 L 73.334 3.781 L 71.717 3.781 L 71.717 13.118 C 71.891 13.118 72.195 13.118 72.5 13.118 C 72.821 13.118 73.143 13.118 73.334 13.118 L 73.334 8.702 C 73.334 7.832 73.334 6.954 73.334 6.085 L 73.334 6.042 C 73.334 5.955 73.334 5.868 73.343 5.772 C 73.386 5.442 73.56 5.216 73.856 5.12 C 73.995 5.068 74.143 5.042 74.282 5.042 C 74.847 5.033 75.403 5.042 75.968 5.042 L 76.542 5.042 L 77.133 5.042 C 77.689 5.042 78.246 5.042 78.802 5.042 C 78.933 5.042 79.08 5.068 79.228 5.12 C 79.541 5.233 79.741 5.511 79.741 5.859 C 79.741 6.911 79.741 7.963 79.741 9.015 C 79.741 9.423 79.498 9.719 79.106 9.806 C 78.976 9.832 78.846 9.849 78.706 9.849 C 77.611 9.849 76.716 9.849 75.786 9.849 L 74.934 9.849 L 73.725 11.136 C 74.977 11.136 77.576 11.136 78.863 11.136 L 78.976 11.127 Z" style=""/>
  <path class="st0" d="M 129.595 11.092 L 129.595 0.252 L 127.978 0.261 L 127.978 8.841 C 127.978 8.928 127.978 9.015 127.97 9.11 C 127.926 9.441 127.752 9.667 127.457 9.762 C 127.318 9.814 127.17 9.84 127.031 9.84 L 122.519 9.84 C 122.389 9.84 122.241 9.814 122.093 9.762 C 121.78 9.649 121.58 9.371 121.58 9.023 C 121.58 7.971 121.58 6.92 121.58 5.868 C 121.58 5.459 121.824 5.164 122.215 5.077 C 122.345 5.051 122.476 5.033 122.615 5.033 L 126.379 5.033 L 127.587 3.747 C 126.335 3.747 123.736 3.747 122.45 3.747 L 122.319 3.747 C 122.232 3.747 122.145 3.755 122.059 3.764 L 122.041 3.764 C 121.572 3.816 121.154 3.981 120.798 4.233 C 120.485 4.46 120.259 4.738 120.111 5.068 C 119.998 5.338 119.937 5.624 119.937 5.955 C 119.937 6.946 119.937 7.928 119.937 8.919 C 119.937 9.075 119.946 9.275 119.99 9.467 C 120.111 9.953 120.381 10.345 120.789 10.632 C 121.25 10.962 121.789 11.127 122.389 11.127 C 123.684 11.127 124.971 11.127 126.266 11.127 C 126.422 11.127 126.579 11.11 126.735 11.084 C 127.092 11.023 127.431 10.892 127.744 10.684 C 127.761 10.666 127.848 10.614 127.961 10.553 L 127.961 11.092 L 129.595 11.092 Z" style=""/>
  <polygon class="st0" points="104.273 0.087 104.273 11.127 105.898 11.127 105.898 0.087" style=""/>
  <path class="st0" d="M 56.452 0.087 L 56.452 5.12 C 55.088 5.12 50.576 5.12 49.794 5.12 L 48.733 6.407 C 50.002 6.407 54.54 6.407 56.452 6.407 L 56.452 11.127 L 58.078 11.127 L 58.078 0.087 C 58.078 0.087 56.452 0.087 56.452 0.087 Z" style=""/>
  <path class="st0" d="M 141.314 3.79 C 141.314 3.773 141.314 3.755 141.314 3.738 C 141.105 3.738 140.896 3.738 140.688 3.738 C 140.357 3.738 140.036 3.738 139.705 3.738 L 139.697 4.312 C 139.697 4.312 139.045 3.721 137.949 3.721 C 137.341 3.721 136.741 3.721 136.132 3.721 C 135.472 3.721 134.811 3.721 134.15 3.721 C 133.959 3.721 133.803 3.729 133.664 3.755 C 133.281 3.816 132.942 3.947 132.647 4.129 C 132.221 4.399 131.934 4.755 131.786 5.181 C 131.708 5.407 131.664 5.659 131.664 5.946 C 131.664 6.598 131.664 7.241 131.664 7.893 L 131.664 8.867 C 131.664 9.041 131.673 9.197 131.699 9.336 C 131.769 9.719 131.925 10.058 132.186 10.327 C 132.664 10.84 133.272 11.101 133.985 11.11 C 135.176 11.127 136.567 11.118 137.915 11.118 L 138.071 11.118 L 139.279 9.832 C 137.81 9.832 135.689 9.832 134.298 9.832 C 134.168 9.832 134.029 9.814 133.872 9.771 C 133.533 9.675 133.316 9.415 133.29 9.041 C 133.29 8.997 133.29 8.962 133.29 8.919 L 133.29 7.858 L 133.29 5.963 C 133.29 5.833 133.299 5.694 133.351 5.564 C 133.438 5.329 133.603 5.172 133.829 5.103 C 133.977 5.051 134.124 5.033 134.255 5.025 C 134.82 5.016 135.376 5.025 135.941 5.025 L 136.515 5.025 L 137.08 5.025 C 137.645 5.025 138.21 5.025 138.775 5.025 C 138.906 5.025 139.045 5.051 139.184 5.103 C 139.427 5.181 139.592 5.364 139.662 5.616 C 139.688 5.72 139.705 5.824 139.705 5.92 L 139.714 11.892 L 139.714 11.918 C 139.714 12.005 139.714 12.092 139.714 12.179 C 139.714 12.248 139.697 12.335 139.662 12.414 C 139.575 12.605 139.427 12.744 139.21 12.822 C 139.062 12.874 138.897 12.909 138.723 12.9 L 136.793 12.9 C 135.906 12.9 135.002 12.9 134.246 12.9 L 133.186 14.187 C 134.35 14.196 136.393 14.187 137.897 14.187 L 138.958 14.187 C 139.071 14.187 139.184 14.178 139.288 14.161 C 139.653 14.117 140.01 14.004 140.331 13.804 C 140.722 13.561 141.001 13.257 141.166 12.866 C 141.279 12.605 141.331 12.318 141.331 11.962 C 141.331 10.11 141.331 8.258 141.331 6.415 L 141.314 3.79 Z" style=""/>
  <path class="st0" d="M 69.657 3.799 C 69.657 3.79 69.657 3.773 69.657 3.764 L 68.04 3.764 L 68.04 4.72 C 68.04 6.102 68.04 7.485 68.04 8.867 C 68.04 8.98 68.031 9.093 68.005 9.206 C 67.953 9.449 67.805 9.632 67.579 9.736 C 67.414 9.814 67.232 9.849 66.997 9.849 L 65.98 9.849 C 64.876 9.849 63.781 9.849 62.677 9.849 C 62.537 9.849 62.407 9.832 62.277 9.806 C 61.972 9.736 61.764 9.554 61.668 9.275 C 61.625 9.145 61.625 9.015 61.625 8.893 L 61.625 3.834 C 61.625 3.816 61.625 3.799 61.625 3.781 L 60.017 3.781 L 60.017 4.92 C 60.017 6.233 60.017 7.554 60.017 8.867 C 60.017 9.015 60.025 9.162 60.043 9.319 C 60.095 9.701 60.251 10.049 60.512 10.336 C 60.99 10.858 61.599 11.127 62.329 11.136 L 66.545 11.144 C 67.04 11.144 67.484 11.023 67.84 10.788 C 67.858 10.771 67.962 10.71 68.049 10.605 L 68.049 12.153 C 68.049 12.396 67.927 12.596 67.71 12.744 C 67.536 12.857 67.327 12.909 67.075 12.909 L 65.554 12.909 C 64.528 12.909 63.407 12.909 62.572 12.909 L 61.512 14.196 C 62.946 14.196 65.989 14.196 67.275 14.196 C 67.371 14.196 67.484 14.187 67.614 14.17 C 68.058 14.117 68.466 13.961 68.823 13.7 C 69.379 13.292 69.657 12.753 69.666 12.101 C 69.674 10.058 69.674 7.98 69.666 5.972 L 69.657 3.799 Z" style=""/>
</svg>